<svg xmlns="http://www.w3.org/2000/svg" version="1.1" xmlns:xlink="http://www.w3.org/1999/xlink" width="239.99617" height="278.00446"><metadata><rdf:RDF xmlns:rdf="http://www.w3.org/1999/02/22-rdf-syntax-ns#" xmlns:dc="http://purl.org/dc/elements/1.1/"><rdf:Description><dc:creator>RealFaviconGenerator</dc:creator><dc:source>https://realfavicongenerator.net</dc:source></rdf:Description></rdf:RDF></metadata><svg viewBox="0 0 239.99617 278.00445" width="239.99617" height="278.00446" id="svg22" xmlns:svg="http://www.w3.org/2000/svg">
  <defs id="defs26"></defs>
  <g id="g7180" style="display:inline" transform="translate(33.398078,39.009888)">
    <polygon points="169.7,148 86.6,196 3.5,148 3.5,52 86.6,4 169.7,52 " fill="#1c2235" id="polygon7178" style="fill:#242a42;fill-opacity:1" transform="matrix(1.4116165,0,0,1.4154538,-35.64599,-41.542195)"></polygon>
  </g>
  <g id="g7176" style="display:inline" transform="translate(33.398078,39.009888)">
    <polygon points="169.7,52 169.7,148 86.6,196 3.5,148 3.5,52 86.6,4 " fill="none" stroke="#cc5500" stroke-width="3.5" stroke-linejoin="miter" id="polygon7174" style="stroke-width:1.97839;stroke-dasharray:none" transform="matrix(1.4270333,0,0,1.4309126,-36.98108,-43.098927)"></polygon>
  </g>
  <!-- Background hex -->
  <!-- SHINY -->
  <!-- WEBAWESOME -->
  <!-- Hex border -->
  <g id="layer6" style="stroke:#ffffff;stroke-width:6.66667;stroke-dasharray:none" transform="translate(33.398078,39.009888)">
    <path style="fill:#ffffff;stroke:#242a42;stroke-width:0.452519;stroke-linecap:butt;stroke-linejoin:miter;stroke-dasharray:none;stroke-opacity:1" d="m 65.443085,15.334658 c -2.210596,0.911053 -7.532647,7.247524 -12.518895,14.045325 -4.986249,6.7978 -9.426634,13.770534 -14.326001,21.366834 -4.899367,7.596301 -10.209482,15.740439 -6.324999,20.020688 3.884483,4.28025 16.962817,4.696104 24.166475,5.918114 7.203657,1.22201 8.532575,3.249652 6.968901,7.865841 -1.563675,4.61619 -6.019382,11.820882 -14.742224,28.77731 -8.722842,16.95643 -21.711759,43.66253 -25.296252,52.54995 -3.584493,8.88742 2.235857,-0.0448 8.956909,-10.52111 6.721052,-10.47625 14.342186,-22.49553 22.74469,-34.89459 C 63.474192,108.06396 72.639793,95.310577 77.350696,86.947747 82.061599,78.584918 82.308762,74.625126 79.695267,71.917085 77.081771,69.209044 71.607219,67.753217 64.908053,67.06676 58.208887,66.380303 50.285419,66.463402 48.423627,62.367946 46.561835,58.27249 50.762336,49.998887 54.658528,42.838932 c 3.896192,-7.159955 7.487589,-13.205359 9.762386,-18.519287 2.274797,-5.313928 3.232767,-9.89604 1.022171,-8.984987 z" id="path6616"></path>
    <path style="fill:#ffffff;stroke:#242142;stroke-width:0.511879px;stroke-linecap:butt;stroke-linejoin:miter;stroke-opacity:1" d="m 27.437657,168.83332 c -0.144083,-1.80979 5.81043,-10.2414 17.632186,-23.14493 11.821756,-12.90354 29.509391,-30.27754 37.945389,-32.71485 8.435998,-2.43731 7.619262,10.06224 7.243875,18.82645 -0.375386,8.76421 -0.309448,13.79275 0.579176,18.12546 0.888624,4.33272 2.599537,7.96892 6.07932,6.42399 3.479787,-1.54493 8.728407,-8.27041 14.651767,-16.17646 5.92335,-7.90606 12.52093,-16.99203 19.45089,-25.06111 6.92996,-8.06908 14.26188,-15.188741 14.8808,-14.33149 0.61892,0.85725 -5.44001,9.65705 -14.23075,23.95705 -8.79074,14.3 -20.31221,34.09843 -29.65784,41.50969 -9.345631,7.41127 -16.515136,2.43434 -18.901906,-8.00885 -2.386769,-10.44319 0.0049,-26.31832 -2.751699,-30.19003 -2.756631,-3.87172 -10.638917,4.294 -16.40459,10.12971 -5.765673,5.83572 -9.399482,9.32562 -13.025626,12.74172 -3.626144,3.41611 -7.24356,6.75743 -12.174087,10.83455 -4.930528,4.07712 -11.172822,8.88889 -11.316905,7.0791 z" id="path6667"></path>
  </g>
  <g id="layer3-3" style="display:inline" transform="translate(63.219892,11.988017)">
    <ellipse cx="56.307426" cy="126.52235" fill="#cc5500" id="circle10-6" style="stroke-width:1.3038" rx="8.1116486" ry="8.1336985"></ellipse>
    <ellipse style="display:inline;fill:none;stroke:#cc5500;stroke-width:1.17794;stroke-dasharray:none;stroke-opacity:1" id="path1515" cx="56.307426" cy="126.52235" rx="11.067255" ry="11.097341"></ellipse>
  </g>
  <g id="layer2" style="display:inline" transform="translate(33.398078,39.009888)">
    <g id="g393">
      <g aria-label="SHINY" transform="scale(0.99864357,1.0013583)" id="text16" style="font-weight:700;font-size:15.0777px;font-family:'Trebuchet MS', 'Arial Narrow', sans-serif;letter-spacing:2.82707px;text-anchor:middle;fill:#74abd7;stroke-width:1.41353">
        <path d="m 69.935579,6.00254 q 0,0.7067672 -0.213503,1.2883777 -0.20614,0.5742483 -0.655232,0.9865292 -0.441729,0.4122808 -1.133772,0.6405077 -0.684681,0.2208648 -1.641761,0.2208648 -0.846648,0 -1.494518,-0.184054 Q 64.156285,8.7707115 63.692469,8.4099657 63.228653,8.04922 62.941529,7.5191446 62.661767,6.9817071 62.529248,6.2896642 l 1.722745,-0.3460214 q 0.07362,0.3460214 0.213503,0.6331456 0.139881,0.2871241 0.382832,0.5006267 0.242951,0.2061404 0.603697,0.323935 0.368108,0.1104323 0.890821,0.1104323 0.905545,0 1.384086,-0.3312971 0.47854,-0.3386593 0.47854,-1.0527886 0,-0.4270051 -0.191416,-0.699405 Q 67.82264,5.1558919 67.498705,4.9792001 67.182132,4.8025083 66.762489,4.6847137 66.350208,4.5669192 65.893754,4.4564868 q 0,0 -0.728853,-0.2135025 Q 64.804155,4.1325519 64.472858,3.9779466 64.148923,3.8233413 63.861799,3.6098387 63.582037,3.3963361 63.368534,3.0871254 63.162394,2.7705527 63.044599,2.3509096 62.926805,1.9312666 62.926805,1.3643805 q 0,-0.77302663 0.250313,-1.32518848 0.257675,-0.55216185 0.706767,-0.89818328 0.456454,-0.35338354 1.074875,-0.51535104 0.618421,-0.1619675 1.354637,-0.1619675 0.831924,0 1.428259,0.1619675 0.596335,0.1546053 0.993891,0.47854025 0.404919,0.32393495 0.633146,0.81719954 0.235589,0.48590243 0.346021,1.14113451 L 67.991969,1.3496562 Q 67.85945,0.67969977 67.44717,0.3410405 67.042251,0.00238123 66.283949,0.00238123 q -0.471179,0 -0.787751,0.10307021 -0.309211,0.0957081 -0.493265,0.26503769 -0.184054,0.16932964 -0.265038,0.39755654 -0.07362,0.22086474 -0.07362,0.47117813 0,0.3828322 0.147243,0.6331456 0.154605,0.2429512 0.427005,0.4122808 0.2724,0.1619675 0.64787,0.279762 0.37547,0.1104324 0.831924,0.2282269 0.397556,0.1030702 0.787751,0.2208648 0.390194,0.1104323 0.743578,0.2650377 0.360746,0.1546053 0.669956,0.37547 0.309211,0.2208648 0.530076,0.5447997 0.228226,0.3165728 0.353383,0.7583023 0.132519,0.4417295 0.132518,1.0454264 z" id="path376"></path>
        <path d="M 79.557921,8.9915762 V 4.5448327 H 75.854756 V 8.9915762 H 74.073113 V -1.3817045 h 1.781643 v 4.1301707 h 3.703165 v -4.1301707 h 1.781642 V 8.9915762 Z" id="path378"></path>
        <path d="M 85.823119,8.9915762 V -1.3817045 h 1.789004 V 8.9915762 Z" id="path380"></path>
        <path d="M 97.263914,8.9915762 93.560748,1.0036347 q 0.02945,0.323935 0.0589,0.6478699 0.02209,0.279762 0.03681,0.603697 0.01472,0.3239349 0.01472,0.6184213 V 8.9915762 H 92.088317 V -1.3817045 h 2.031955 l 3.762063,8.0542009 Q 97.852886,6.3632858 97.8308,6.0246265 97.808714,5.7375023 97.786627,5.3767566 97.771903,5.0160109 97.771903,4.647903 v -6.0296075 h 1.582864 V 8.9915762 Z" id="path382"></path>
        <path d="m 108.02739,4.7362488 v 4.2553274 h -1.77428 V 4.7362488 l -3.02585,-6.1179533 h 1.86263 l 2.03932,4.3878462 2.06876,-4.3878462 h 1.86263 z" id="path384"></path>
      </g>
    </g>
    <g id="g427">
      <g aria-label="WEBAWESOME" transform="scale(0.99864357,1.0013583)" id="text18" style="font-weight:700;font-size:14.8421px;font-family:'Trebuchet MS', 'Arial Narrow', sans-serif;letter-spacing:2.8;text-anchor:middle;fill:#cc5500;stroke-width:1.41353">
        <path d="m 36.512093,189.39134 h -2.079924 l -1.137797,-5.9064 q -0.05073,-0.26814 -0.108707,-0.63775 l -0.123201,-0.71746 q -0.06522,-0.39859 -0.115954,-0.82617 0,0 -0.130448,0.83342 0,0 -0.05798,0.3551 -0.02899,0.18843 -0.06522,0.36236 l -0.05798,0.34062 q -0.02899,0.15943 -0.05798,0.28988 l -1.130551,5.9064 h -2.079923 l -2.152394,-10.21119 h 1.775544 l 1.043585,5.68174 0.166684,0.91314 0.144942,0.80443 q 0.07247,0.41309 0.130448,0.78994 l 0.173931,-1.04359 q 0,0 0.07247,-0.44932 l 0.08697,-0.45657 0.07247,-0.43483 0.06522,-0.3696 1.036338,-5.43534 h 1.963969 l 1.05808,5.43534 q 0.03624,0.17393 0.06522,0.3841 l 0.07247,0.44932 q 0.03624,0.22466 0.07247,0.45657 0.03624,0.22466 0.06522,0.44207 l 0.144943,1.02185 q 0,0 0.144942,-0.84067 0,0 0.15219,-0.81168 0.07972,-0.44207 0.166683,-0.85516 l 1.00735,-5.68174 h 1.775544 z" id="path395"></path>
        <path d="m 42.297906,189.39134 v -10.21119 h 6.587631 v 1.65234 h -4.833828 v 2.56548 h 4.471472 v 1.65235 h -4.471472 v 2.68868 h 5.072983 v 1.65234 z" id="path397"></path>
        <path d="m 60.635729,186.478 q 0,0.77544 -0.260896,1.33347 -0.25365,0.55078 -0.695724,0.90589 -0.442074,0.34786 -1.029091,0.51455 -0.587017,0.15943 -1.246504,0.15943 h -4.188835 v -10.21119 h 3.833726 q 0.739206,0 1.318975,0.15944 0.57977,0.15219 0.978362,0.47106 0.398591,0.31887 0.60151,0.80443 0.20292,0.47831 0.20292,1.13055 0,0.86966 -0.398592,1.47117 -0.391344,0.59426 -1.195774,0.80443 1.014596,0.14494 1.543636,0.78269 0.536287,0.6305 0.536287,1.67408 z m -2.246607,-4.44248 q 0,-0.68848 -0.362356,-0.97836 -0.355109,-0.28989 -1.065327,-0.28989 h -1.992957 v 2.52924 h 2.007452 q 0.739206,0 1.072573,-0.31162 0.340615,-0.31887 0.340615,-0.94937 z m 0.485557,4.2758 q 0,-0.40584 -0.130448,-0.68123 -0.130448,-0.27539 -0.362356,-0.44208 -0.224661,-0.16668 -0.52904,-0.23915 -0.304379,-0.0725 -0.666735,-0.0725 h -2.217618 v 2.92783 h 2.290089 q 0.347862,0 0.637747,-0.0652 0.297132,-0.0725 0.514545,-0.23916 0.217414,-0.17393 0.340615,-0.46381 0.123201,-0.28989 0.123201,-0.72471 z" id="path399"></path>
        <path d="m 70.711836,189.39134 -0.739207,-2.60896 h -3.188732 l -0.739206,2.60896 h -1.753803 l 3.051037,-10.21119 h 2.065429 l 3.04379,10.21119 z m -1.956723,-7.1529 q 0,0 -0.144942,-0.51455 -0.06522,-0.25365 -0.115954,-0.46382 l -0.08697,-0.3551 q -0.02899,-0.1377 -0.02899,-0.15219 -0.0072,0.0217 -0.03624,0.15943 -0.02899,0.1377 -0.07972,0.34786 -0.05073,0.21017 -0.115954,0.46382 l -0.144942,0.51455 -0.826172,2.93508 h 2.406044 z" id="path401"></path>
        <path d="m 84.215832,189.39134 h -2.079923 l -1.137798,-5.9064 q -0.05073,-0.26814 -0.108707,-0.63775 l -0.123201,-0.71746 q -0.06522,-0.39859 -0.115954,-0.82617 0,0 -0.130448,0.83342 0,0 -0.05798,0.3551 -0.02899,0.18843 -0.06522,0.36236 l -0.05798,0.34062 q -0.02899,0.15943 -0.05798,0.28988 l -1.13055,5.9064 h -2.079924 l -2.152394,-10.21119 h 1.775544 l 1.043585,5.68174 0.166684,0.91314 0.144942,0.80443 q 0.07247,0.41309 0.130449,0.78994 l 0.17393,-1.04359 q 0,0 0.07247,-0.44932 l 0.08697,-0.45657 0.07247,-0.43483 0.06522,-0.3696 1.036338,-5.43534 h 1.96397 l 1.058079,5.43534 q 0.03624,0.17393 0.06522,0.3841 l 0.07247,0.44932 q 0.03624,0.22466 0.07247,0.45657 0.03623,0.22466 0.06522,0.44207 l 0.144942,1.02185 q 0,0 0.144942,-0.84067 0,0 0.15219,-0.81168 0.07972,-0.44207 0.166684,-0.85516 l 1.007349,-5.68174 h 1.775544 z" id="path403"></path>
        <path d="m 90.001643,189.39134 v -10.21119 h 6.587632 v 1.65234 h -4.833829 v 2.56548 h 4.471473 v 1.65235 h -4.471473 v 2.68868 h 5.072983 v 1.65234 z" id="path405"></path>
        <path d="m 107.7452,186.44901 q 0,0.69573 -0.21016,1.26825 -0.20292,0.56527 -0.645,0.97111 -0.43482,0.40584 -1.11605,0.6305 -0.67398,0.21741 -1.61611,0.21741 -0.83342,0 -1.47117,-0.18117 -0.63049,-0.18118 -1.08706,-0.53629 -0.45657,-0.35511 -0.73921,-0.8769 -0.27539,-0.52904 -0.40584,-1.21027 l 1.69583,-0.34062 q 0.0725,0.34062 0.21016,0.62326 0.1377,0.28263 0.37685,0.4928 0.23916,0.20292 0.59427,0.31887 0.36235,0.10871 0.8769,0.10871 0.8914,0 1.36246,-0.32612 0.47106,-0.33337 0.47106,-1.03634 0,-0.42033 -0.18842,-0.68847 -0.18843,-0.26815 -0.5073,-0.44208 -0.31163,-0.17393 -0.72471,-0.28988 -0.40584,-0.11596 -0.85516,-0.22466 0,0 -0.71747,-0.21017 -0.35511,-0.10871 -0.68123,-0.2609 -0.31887,-0.15219 -0.60151,-0.36235 -0.27539,-0.21017 -0.48556,-0.51455 -0.20292,-0.31162 -0.31887,-0.72471 -0.11595,-0.41309 -0.11595,-0.97111 0,-0.76095 0.2464,-1.30448 0.25365,-0.54354 0.69572,-0.88415 0.44932,-0.34787 1.05808,-0.5073 0.60876,-0.15944 1.33347,-0.15944 0.81893,0 1.40594,0.15944 0.58702,0.15219 0.97836,0.47106 0.3986,0.31887 0.62326,0.80443 0.2319,0.47831 0.34061,1.1233 l -1.69583,0.28264 q -0.13044,-0.65949 -0.53628,-0.99285 -0.39859,-0.33337 -1.14505,-0.33337 -0.46381,0 -0.77544,0.10146 -0.30438,0.0942 -0.48556,0.2609 -0.18117,0.16668 -0.26089,0.39134 -0.0725,0.21741 -0.0725,0.46382 0,0.37685 0.14494,0.62325 0.15219,0.23915 0.42033,0.40584 0.26815,0.15943 0.63775,0.27539 0.3696,0.1087 0.81892,0.22466 0.39135,0.10146 0.77544,0.21741 0.3841,0.10871 0.73196,0.2609 0.35511,0.15219 0.65949,0.3696 0.30438,0.21741 0.52179,0.53629 0.22467,0.31162 0.34787,0.74645 0.13044,0.43483 0.13044,1.02909 z" id="path407"></path>
        <path d="m 119.98095,184.23864 q 0,1.19578 -0.28988,2.17414 -0.28989,0.97836 -0.84067,1.67408 -0.54353,0.69572 -1.33347,1.07257 -0.78269,0.37685 -1.77554,0.37685 -1.05084,0 -1.84077,-0.39134 -0.78994,-0.39859 -1.31898,-1.10156 -0.52904,-0.71022 -0.79718,-1.68133 -0.2609,-0.97112 -0.2609,-2.12341 0,-1.19577 0.27539,-2.15964 0.27539,-0.96387 0.81168,-1.63785 0.54353,-0.68123 1.32622,-1.04359 0.78994,-0.3696 1.81178,-0.3696 1.02185,0 1.81178,0.3696 0.78994,0.36961 1.32623,1.05084 0.53628,0.68123 0.81167,1.64509 0.28264,0.95662 0.28264,2.14515 z m -1.79004,0 q 0,-0.80443 -0.15943,-1.44942 -0.15219,-0.65224 -0.46382,-1.11606 -0.30438,-0.46382 -0.76095,-0.71022 -0.45657,-0.25365 -1.05808,-0.25365 -0.616,0 -1.07257,0.25365 -0.45657,0.2464 -0.7682,0.71022 -0.31162,0.46382 -0.46381,1.11606 -0.15219,0.64499 -0.15219,1.44942 0,0.79718 0.15219,1.46392 0.15944,0.65949 0.46381,1.1378 0.31163,0.47831 0.7682,0.74645 0.46382,0.26814 1.06533,0.26814 0.64499,0 1.10156,-0.26814 0.46381,-0.27539 0.76095,-0.7537 0.30437,-0.48556 0.44207,-1.14505 0.14494,-0.66673 0.14494,-1.44942 z" id="path409"></path>
        <path d="m 131.06441,189.39134 v -6.18904 q 0,-0.3696 0.007,-0.76095 0.007,-0.39134 0.0217,-0.71746 0,0 0.029,-0.74645 0,0 -0.23916,1.08706 0,0 -0.10146,0.44933 l -0.10146,0.44932 -0.0942,0.40584 -0.087,0.32612 -1.5074,5.69623 h -1.25376 l -1.5074,-5.69623 q -0.0362,-0.1377 -0.0797,-0.32612 l -0.0942,-0.40584 -0.1087,-0.44932 -0.10146,-0.44933 q 0,0 -0.25365,-1.08706 0.0145,0.42033 0.0362,0.82617 0.0145,0.34786 0.0217,0.73196 0.0145,0.38409 0.0145,0.66673 v 6.18904 h -1.55813 v -10.21119 h 2.34806 l 1.50016,5.71073 q 0.058,0.22466 0.1232,0.55078 l 0.13769,0.6305 q 0,0 0.15219,0.73921 0,0 0.15944,-0.72471 0,0 0.0725,-0.31163 l 0.0725,-0.31163 q 0.0362,-0.15219 0.0725,-0.28988 l 0.0652,-0.2464 1.47116,-5.74697 h 2.34082 v 10.21119 z" id="path411"></path>
        <path d="m 137.0459,189.39134 v -10.21119 h 6.58763 v 1.65234 h -4.83383 v 2.56548 h 4.47147 v 1.65235 h -4.47147 v 2.68868 h 5.07298 v 1.65234 z" id="path413"></path>
      </g>
    </g>
    <text xml:space="preserve" style="font-style:normal;font-weight:normal;font-size:18.8471px;line-height:1.25;font-family:sans-serif;letter-spacing:0px;word-spacing:0px;fill:#000000;fill-opacity:1;stroke:none;stroke-width:0.471177" x="-35.694408" y="20.759392" id="text7492" transform="scale(0.99864357,1.0013583)"><tspan id="tspan7490" style="stroke-width:0.471177" x="-35.694408" y="20.759392"></tspan></text>
  </g>
</svg></svg>